{"glyphs":{"0":{"ha":764,"x_min":0,"x_max":0,"o":"m 382 -14 b 89 328 200 -14 89 99 l 89 714 b 382 1056 89 942 200 1056 b 675 714 565 1056 675 942 l 675 328 b 382 -14 675 99 565 -14 m 382 114 b 536 328 478 114 536 171 l 536 714 b 382 928 536 869 478 928 b 228 714 286 928 228 869 l 228 328 b 382 114 228 171 285 114 "},"1":{"ha":764,"x_min":0,"x_max":0,"o":"m 353 1042 l 492 1042 l 492 0 l 353 0 l 353 717 l 154 717 l 154 833 l 214 833 b 353 971 313 833 353 872 "},"2":{"ha":764,"x_min":0,"x_max":0,"o":"m 647 765 b 253 128 647 478 289 354 l 661 128 l 661 0 l 103 0 l 103 69 b 508 765 103 400 508 511 b 381 928 508 881 454 928 b 250 753 303 928 250 883 l 250 672 l 111 672 l 111 764 b 381 1056 111 958 231 1056 b 647 765 528 1056 647 957 "},"3":{"ha":764,"x_min":0,"x_max":0,"o":"m 318 467 l 318 606 l 396 606 b 522 751 474 606 522 649 l 522 793 b 396 928 522 889 471 928 b 267 796 321 928 267 889 l 267 758 l 128 758 l 128 808 b 396 1056 128 969 247 1056 b 661 806 542 1056 661 968 l 661 756 b 539 550 661 657 613 588 b 689 324 629 513 689 436 l 689 263 b 396 -14 689 83 558 -14 b 100 265 232 -14 100 83 l 100 326 l 239 326 l 239 278 b 396 114 239 164 301 114 b 550 275 490 114 550 163 l 550 306 b 396 467 550 421 490 467 "},"4":{"ha":764,"x_min":0,"x_max":0,"o":"m 349 1042 l 558 1042 l 558 319 l 692 319 l 692 192 l 558 192 l 558 0 l 419 0 l 419 192 l 69 192 l 69 319 m 419 319 l 419 933 l 185 319 "},"5":{"ha":764,"x_min":0,"x_max":0,"o":"m 250 619 b 419 708 285 674 343 708 b 661 406 578 708 661 604 l 661 294 b 383 -14 661 90 538 -14 b 103 278 226 -14 103 88 l 103 317 l 242 317 l 242 300 b 383 114 242 168 296 114 b 522 294 465 114 522 169 l 522 397 b 383 586 522 535 467 586 b 250 479 300 586 260 536 l 117 479 l 117 1042 l 636 1042 l 636 914 l 250 914 "},"6":{"ha":764,"x_min":0,"x_max":0,"o":"m 228 539 b 418 647 272 617 340 647 b 675 331 561 647 675 542 l 675 303 b 382 -14 675 96 549 -14 b 89 317 215 -14 89 100 l 89 725 b 382 1056 89 942 215 1056 b 664 758 542 1056 664 953 l 664 735 l 525 735 l 525 747 b 382 928 525 875 471 928 b 228 714 289 928 228 867 m 228 304 b 382 114 228 169 288 114 b 536 304 476 114 536 171 l 536 329 b 382 519 536 465 479 519 b 228 329 288 519 228 465 "},"7":{"ha":764,"x_min":0,"x_max":0,"o":"m 417 0 l 278 0 l 278 47 b 533 914 278 456 397 660 l 117 914 l 117 1042 l 647 1042 l 647 868 b 417 71 513 608 417 451 "},"8":{"ha":764,"x_min":0,"x_max":0,"o":"m 83 326 b 235 556 83 439 144 517 b 114 758 163 593 114 661 l 114 808 b 382 1056 114 969 233 1056 b 650 808 531 1056 650 969 l 650 758 b 529 556 650 661 601 593 b 681 326 619 517 681 439 l 681 265 b 382 -14 681 83 547 -14 b 83 265 217 -14 83 83 l 83 326 m 253 760 b 382 617 253 660 304 617 b 511 760 461 617 511 660 l 511 796 b 382 928 511 889 458 928 b 253 796 307 928 253 889 m 222 278 b 382 114 222 164 286 114 b 542 278 479 114 542 164 l 542 325 b 382 489 542 442 479 489 b 222 325 286 489 222 442 "},"9":{"ha":764,"x_min":0,"x_max":0,"o":"m 536 503 b 346 394 492 425 424 394 b 89 711 203 394 89 500 l 89 739 b 382 1056 89 946 215 1056 b 675 725 549 1056 675 942 l 675 317 b 382 -14 675 100 549 -14 b 100 283 222 -14 100 89 l 100 307 l 239 307 l 239 294 b 382 114 239 167 293 114 b 536 328 475 114 536 175 m 536 738 b 382 928 536 872 476 928 b 228 738 288 928 228 871 l 228 713 b 382 522 228 576 285 522 b 536 713 476 522 536 576 "}," ":{"ha":319,"x_min":0,"x_max":0,"o":""},"A":{"ha":708,"x_min":0,"x_max":0,"o":"m 458 1042 l 692 0 l 551 0 l 497 256 l 211 256 l 157 0 l 17 0 l 250 1042 m 469 383 l 354 931 l 239 383 "},"B":{"ha":764,"x_min":0,"x_max":0,"o":"m 103 1042 l 388 1042 b 675 786 558 1042 675 953 l 675 772 b 542 563 675 665 624 599 b 703 319 639 525 703 444 l 703 292 b 415 0 703 103 586 0 l 103 0 m 242 914 l 242 610 l 376 610 b 536 761 475 610 536 653 l 536 775 b 374 914 536 872 478 914 m 242 483 l 242 128 l 401 128 b 564 304 506 128 564 181 l 564 318 b 401 483 564 438 503 483 "},"C":{"ha":792,"x_min":0,"x_max":0,"o":"m 703 397 l 703 342 b 396 -14 703 104 588 -14 b 89 342 204 -14 89 104 l 89 700 b 396 1056 89 938 204 1056 b 703 700 588 1056 703 938 l 703 658 l 564 658 l 564 700 b 396 928 564 867 501 928 b 228 700 292 928 228 867 l 228 342 b 396 114 228 175 290 114 b 564 342 500 114 564 175 l 564 397 "},"D":{"ha":792,"x_min":0,"x_max":0,"o":"m 390 1042 b 703 694 585 1042 703 929 l 703 347 b 390 0 703 113 585 0 l 103 0 l 103 1042 l 390 1042 m 390 128 b 564 347 497 128 564 185 l 564 694 b 390 914 564 857 500 914 l 242 914 l 242 128 l 390 128 "},"E":{"ha":631,"x_min":0,"x_max":0,"o":"m 569 0 l 103 0 l 103 1042 l 569 1042 l 569 914 l 242 914 l 242 600 l 542 600 l 542 472 l 242 472 l 242 128 l 569 128 "},"F":{"ha":603,"x_min":0,"x_max":0,"o":"m 103 0 l 103 1042 l 569 1042 l 569 914 l 242 914 l 242 572 l 528 572 l 528 444 l 242 444 l 242 0 "},"G":{"ha":799,"x_min":0,"x_max":0,"o":"m 369 -14 b 89 342 196 -14 89 104 l 89 700 b 396 1056 89 938 204 1056 b 703 700 588 1056 703 938 l 703 658 l 564 658 l 564 700 b 396 928 564 867 501 928 b 228 700 292 928 228 867 l 228 342 b 396 114 228 175 290 114 b 564 331 499 114 564 176 l 564 421 l 375 421 l 375 549 l 703 549 l 703 0 l 578 0 l 578 124 b 369 -14 539 32 467 -14 "},"H":{"ha":819,"x_min":0,"x_max":0,"o":"m 103 0 l 103 1042 l 242 1042 l 242 600 l 578 600 l 578 1042 l 717 1042 l 717 0 l 578 0 l 578 472 l 242 472 l 242 0 "},"I":{"ha":344,"x_min":0,"x_max":0,"o":"m 103 0 l 103 1042 l 242 1042 l 242 0 "},"J":{"ha":703,"x_min":0,"x_max":0,"o":"m 614 1042 l 614 275 b 335 -14 614 82 492 -14 b 56 275 178 -14 56 82 l 56 364 l 194 364 l 194 286 b 335 114 194 160 251 114 b 475 286 419 114 475 160 l 475 1042 "},"K":{"ha":721,"x_min":0,"x_max":0,"o":"m 242 535 l 546 1042 l 699 1042 l 386 543 l 715 0 l 549 0 l 242 513 l 242 0 l 103 0 l 103 1042 l 242 1042 "},"L":{"ha":603,"x_min":0,"x_max":0,"o":"m 581 0 l 103 0 l 103 1042 l 242 1042 l 242 128 l 581 128 "},"M":{"ha":1061,"x_min":0,"x_max":0,"o":"m 440 0 l 231 942 l 231 0 l 103 0 l 103 1042 l 340 1042 l 531 183 l 717 1042 l 958 1042 l 958 0 l 819 0 l 819 938 l 608 0 "},"N":{"ha":819,"x_min":0,"x_max":0,"o":"m 589 99 l 589 1042 l 717 1042 l 717 0 l 488 0 l 231 954 l 231 0 l 103 0 l 103 1042 l 335 1042 "},"O":{"ha":792,"x_min":0,"x_max":0,"o":"m 396 -14 b 89 342 204 -14 89 103 l 89 700 b 396 1056 89 938 204 1056 b 703 700 588 1056 703 938 l 703 342 b 396 -14 703 103 588 -14 m 396 114 b 564 342 500 114 564 174 l 564 700 b 396 928 564 867 501 928 b 228 700 292 928 228 867 l 228 342 b 396 114 228 174 290 114 "},"P":{"ha":736,"x_min":0,"x_max":0,"o":"m 103 0 l 103 1042 l 404 1042 b 692 764 572 1042 692 946 l 692 689 b 404 397 692 500 572 397 l 242 397 l 242 0 m 242 914 l 242 525 l 390 525 b 553 703 490 525 553 576 l 553 750 b 390 914 553 868 490 914 "},"Q":{"ha":792,"x_min":0,"x_max":0,"o":"m 368 -14 b 89 342 204 -14 89 104 l 89 700 b 396 1056 89 938 204 1056 b 703 700 588 1056 703 938 l 703 342 b 628 126 703 247 681 171 l 719 0 l 585 0 l 529 76 b 368 -14 503 13 439 -14 m 396 114 b 479 132 428 114 456 119 l 307 361 l 446 361 l 547 219 b 564 342 558 251 564 292 l 564 700 b 396 928 564 867 501 928 b 228 700 292 928 228 867 l 228 342 b 396 114 228 175 290 114 "},"R":{"ha":764,"x_min":0,"x_max":0,"o":"m 103 0 l 103 1042 l 408 1042 b 699 778 576 1042 699 950 l 699 736 b 422 471 699 564 576 479 l 731 0 l 564 0 l 242 510 l 242 0 m 242 914 l 242 586 l 394 586 b 560 750 496 586 560 633 l 560 764 b 394 914 560 874 496 914 "},"S":{"ha":674,"x_min":0,"x_max":0,"o":"m 76 800 b 339 1056 76 982 194 1056 b 604 778 488 1056 604 965 l 604 714 l 465 714 l 465 774 b 339 928 465 881 417 928 b 215 800 265 928 215 883 b 338 624 215 718 269 669 l 450 543 b 619 264 543 478 619 399 b 340 -14 619 78 494 -14 b 61 264 186 -14 61 85 l 61 342 l 200 342 l 200 274 b 340 114 200 175 256 114 b 481 247 426 114 481 164 b 357 438 481 333 428 389 l 247 514 b 76 800 153 579 76 661 "},"T":{"ha":603,"x_min":0,"x_max":0,"o":"m 232 0 l 232 914 l 14 914 l 14 1042 l 589 1042 l 589 914 l 371 914 l 371 0 "},"U":{"ha":792,"x_min":0,"x_max":0,"o":"m 235 1042 l 235 321 b 396 114 235 168 294 114 b 557 321 496 114 557 168 l 557 1042 l 696 1042 l 696 321 b 396 -14 696 94 583 -14 b 96 321 208 -14 96 94 l 96 1042 "},"V":{"ha":708,"x_min":0,"x_max":0,"o":"m 17 1042 l 157 1042 l 354 111 l 551 1042 l 692 1042 l 458 0 l 250 0 "},"W":{"ha":1042,"x_min":0,"x_max":0,"o":"m 174 0 l 14 1042 l 153 1042 l 281 138 l 417 1042 l 625 1042 l 761 138 l 889 1042 l 1028 1042 l 868 0 l 660 0 l 521 922 l 382 0 "},"X":{"ha":681,"x_min":0,"x_max":0,"o":"m 340 415 l 158 0 l 7 0 l 261 535 l 22 1042 l 172 1042 l 340 653 l 508 1042 l 658 1042 l 419 535 l 674 0 l 522 0 "},"Y":{"ha":667,"x_min":0,"x_max":0,"o":"m 264 0 l 264 419 l 1 1042 l 140 1042 l 333 564 l 526 1042 l 665 1042 l 403 419 l 403 0 "},"Z":{"ha":611,"x_min":0,"x_max":0,"o":"m 435 914 l 54 914 l 54 1042 l 564 1042 l 564 878 l 178 128 l 578 128 l 578 0 l 47 0 l 47 164 "},"a":{"ha":764,"x_min":0,"x_max":0,"o":"m 303 -14 b 67 183 179 -14 67 46 b 535 492 67 483 535 333 b 385 597 535 560 469 597 b 232 461 294 597 232 551 l 88 461 b 385 708 88 640 232 708 b 674 486 535 708 674 647 l 674 0 l 538 0 l 538 117 b 303 -14 492 25 403 -14 m 208 192 b 331 103 208 132 260 103 b 538 286 438 103 538 165 l 538 336 b 208 192 419 279 208 308 "},"b":{"ha":854,"x_min":0,"x_max":0,"o":"m 469 708 b 803 347 660 708 803 560 b 469 -14 803 135 660 -14 b 242 104 376 -14 296 31 l 242 0 l 103 0 l 103 1042 l 242 1042 l 242 590 b 469 708 296 664 376 708 m 453 581 b 242 347 332 581 242 488 b 453 114 242 207 332 114 b 664 347 574 114 664 207 b 453 581 664 488 574 581 "},"c":{"ha":794,"x_min":0,"x_max":0,"o":"m 596 418 b 397 581 582 524 497 581 b 190 347 279 581 190 488 b 397 114 190 207 279 114 b 599 292 499 114 585 176 l 743 292 b 397 -14 732 108 586 -14 b 51 347 199 -14 51 135 b 397 708 51 560 199 708 b 740 418 581 708 724 592 l 596 418 "},"d":{"ha":854,"x_min":0,"x_max":0,"o":"m 385 708 b 613 590 478 708 558 664 l 613 1042 l 751 1042 l 751 0 l 613 0 l 613 104 b 385 -14 558 31 478 -14 b 51 347 194 -14 51 135 b 385 708 51 560 194 708 m 401 581 b 190 347 281 581 190 488 b 401 114 190 207 281 114 b 613 347 522 114 613 207 b 401 581 613 488 522 581 "},"e":{"ha":786,"x_min":0,"x_max":0,"o":"m 188 300 b 399 108 204 179 282 108 b 567 208 483 108 539 146 l 717 208 b 393 -14 674 65 553 -14 b 51 347 196 -14 51 135 b 393 708 51 560 196 708 b 735 347 590 708 735 560 b 732 300 735 331 733 315 m 393 586 b 189 400 281 586 206 517 l 597 400 b 393 586 581 517 504 586 "},"f":{"ha":528,"x_min":0,"x_max":0,"o":"m 286 694 l 486 694 l 486 572 l 286 572 l 286 0 l 147 0 l 147 572 l 28 572 l 28 694 l 147 694 l 147 803 b 403 1056 147 965 254 1056 b 500 1043 439 1056 474 1051 l 500 915 b 415 928 475 924 446 928 b 286 799 335 928 286 886 "},"g":{"ha":854,"x_min":0,"x_max":0,"o":"m 385 -14 b 51 347 194 -14 51 135 b 385 708 51 560 194 708 b 613 590 478 708 558 664 l 613 694 l 751 694 l 751 -6 b 410 -361 751 -217 600 -361 b 68 -61 228 -361 93 -240 l 208 -61 b 410 -233 226 -165 301 -233 b 613 -6 538 -233 613 -139 l 613 104 b 385 -14 558 31 478 -14 m 401 114 b 613 347 522 114 613 207 b 401 581 613 488 522 581 b 190 347 281 581 190 488 b 401 114 190 207 281 114 "},"h":{"ha":813,"x_min":0,"x_max":0,"o":"m 578 379 b 410 586 578 517 514 586 b 242 379 306 586 242 517 l 242 0 l 103 0 l 103 1042 l 242 1042 l 242 585 b 453 708 285 665 361 708 b 717 407 604 708 717 611 l 717 0 l 578 0 l 578 379 "},"i":{"ha":344,"x_min":0,"x_max":0,"o":"m 172 846 b 81 939 119 846 81 886 b 172 1031 81 992 119 1031 b 264 939 226 1031 264 992 b 172 846 264 886 226 846 m 103 0 l 103 694 l 242 694 l 242 0 "},"j":{"ha":344,"x_min":0,"x_max":0,"o":"m 172 846 b 81 939 119 846 81 886 b 172 1031 81 992 119 1031 b 264 939 226 1031 264 992 b 172 846 264 886 226 846 m 103 694 l 242 694 l 242 -124 b 19 -347 242 -290 147 -347 b -50 -342 -8 -347 -39 -344 l -50 -215 b 1 -219 -35 -218 -17 -219 b 103 -121 63 -219 103 -200 "},"k":{"ha":767,"x_min":0,"x_max":0,"o":"m 242 386 l 540 694 l 725 694 l 399 378 l 750 0 l 574 0 l 242 365 l 242 0 l 103 0 l 103 1042 l 242 1042 "},"l":{"ha":344,"x_min":0,"x_max":0,"o":"m 103 0 l 103 1042 l 242 1042 l 242 0 "},"m":{"ha":1215,"x_min":0,"x_max":0,"o":"m 542 399 b 392 586 542 524 485 586 b 242 399 299 586 242 524 l 242 0 l 103 0 l 103 694 l 242 694 l 242 597 b 435 708 282 669 351 708 b 654 571 533 708 614 664 b 875 708 694 661 775 708 b 1119 426 1015 708 1119 617 l 1119 0 l 981 0 l 981 399 b 832 586 981 524 925 586 b 681 399 738 586 681 524 l 681 0 l 542 0 l 542 399 "},"n":{"ha":813,"x_min":0,"x_max":0,"o":"m 578 379 b 410 586 578 517 514 586 b 242 379 306 586 242 517 l 242 0 l 103 0 l 103 694 l 242 694 l 242 585 b 453 708 285 665 361 708 b 717 407 604 708 717 611 l 717 0 l 578 0 l 578 379 "},"o":{"ha":806,"x_min":0,"x_max":0,"o":"m 403 -14 b 51 347 201 -14 51 135 b 403 708 51 560 201 708 b 754 347 604 708 754 560 b 403 -14 754 135 604 -14 m 403 114 b 615 347 524 114 615 207 b 403 581 615 488 524 581 b 190 347 282 581 190 488 b 403 114 190 207 282 114 "},"p":{"ha":854,"x_min":0,"x_max":0,"o":"m 103 -347 l 103 694 l 242 694 l 242 590 b 469 708 296 664 376 708 b 803 347 660 708 803 560 b 469 -14 803 135 660 -14 b 242 104 376 -14 296 31 l 242 -347 m 453 114 b 664 347 574 114 664 207 b 453 581 664 488 574 581 b 242 347 332 581 242 488 b 453 114 242 207 332 114 "},"q":{"ha":854,"x_min":0,"x_max":0,"o":"m 385 -14 b 51 347 194 -14 51 135 b 385 708 51 560 194 708 b 613 590 478 708 558 664 l 613 694 l 751 694 l 751 -347 l 613 -347 l 613 104 b 385 -14 558 31 478 -14 m 401 114 b 613 347 522 114 613 207 b 401 581 613 488 522 581 b 190 347 281 581 190 488 b 401 114 190 207 281 114 "},"r":{"ha":560,"x_min":0,"x_max":0,"o":"m 242 569 b 482 708 292 660 376 708 b 526 704 499 708 515 707 l 526 553 b 453 564 506 560 481 564 b 242 349 319 564 242 492 l 242 0 l 103 0 l 103 694 l 242 694 "},"s":{"ha":700,"x_min":0,"x_max":0,"o":"m 639 196 b 361 -14 639 65 522 -14 b 61 224 190 -14 61 72 l 206 224 b 361 96 206 139 272 96 b 496 190 446 96 496 128 b 75 504 496 358 75 225 b 340 708 75 631 190 708 b 625 482 503 708 625 610 l 481 482 b 340 597 481 549 421 597 b 215 510 265 597 215 565 b 639 196 215 356 639 479 "},"t":{"ha":542,"x_min":0,"x_max":0,"o":"m 281 238 b 399 114 281 151 318 114 b 481 126 429 114 457 118 l 481 3 b 372 -14 456 -6 413 -14 b 142 229 239 -14 142 40 l 142 572 l 28 572 l 28 694 l 142 694 l 142 900 l 281 900 l 281 694 l 481 694 l 481 572 l 281 572 l 281 238 "},"u":{"ha":806,"x_min":0,"x_max":0,"o":"m 235 318 b 400 108 235 179 297 108 b 564 318 501 108 564 179 l 564 694 l 703 694 l 703 0 l 564 0 l 564 111 b 357 -14 521 29 447 -14 b 96 290 208 -14 96 83 l 96 694 l 235 694 l 235 318 "},"v":{"ha":694,"x_min":0,"x_max":0,"o":"m 250 0 l 14 694 l 158 694 l 347 111 l 536 694 l 681 694 l 444 0 "},"w":{"ha":1063,"x_min":0,"x_max":0,"o":"m 208 0 l 21 694 l 154 694 l 297 121 l 443 694 l 619 694 l 765 121 l 908 694 l 1042 694 l 854 0 l 679 0 l 532 574 l 383 0 "},"x":{"ha":722,"x_min":0,"x_max":0,"o":"m 6 0 l 278 360 l 19 694 l 182 694 l 365 458 l 540 694 l 703 694 l 444 356 l 717 0 l 554 0 l 354 257 l 168 0 "},"y":{"ha":696,"x_min":0,"x_max":0,"o":"m 414 -78 b 117 -358 356 -243 288 -358 b 13 -343 78 -358 39 -351 l 13 -221 b 104 -236 39 -229 71 -236 b 283 -76 192 -236 239 -185 l 8 694 l 147 694 l 349 113 l 549 694 l 688 694 l 414 -78 "},"z":{"ha":653,"x_min":0,"x_max":0,"o":"m 54 0 l 54 158 l 450 572 l 61 572 l 61 694 l 585 694 l 585 536 l 189 122 l 613 122 l 613 0 "},",":{"ha":296,"x_min":0,"x_max":0,"o":"m 243 67 b 146 -181 243 -1 204 -92 l 67 -181 b 146 -14 104 -118 132 -65 b 56 78 93 -12 56 28 b 149 171 56 131 94 171 b 243 67 201 171 243 132 "},".":{"ha":296,"x_min":0,"x_max":0,"o":"m 147 -14 b 56 78 94 -14 56 26 b 147 171 56 131 94 171 b 240 78 203 171 240 131 b 147 -14 240 26 203 -14 "},"-":{"ha":486,"x_min":0,"x_max":0,"o":"m 75 318 l 75 446 l 411 446 l 411 318 "},"!":{"ha":356,"x_min":0,"x_max":0,"o":"m 114 347 l 103 1042 l 253 1042 l 242 347 m 178 -14 b 90 72 131 -14 90 26 b 178 160 90 119 131 160 b 264 72 226 160 264 119 b 178 -14 264 26 226 -14 "},"?":{"ha":690,"x_min":0,"x_max":0,"o":"m 650 790 b 414 378 650 578 419 556 l 413 347 l 285 347 l 285 385 b 511 790 285 593 511 636 b 350 928 511 878 453 928 b 181 744 257 928 181 878 l 181 706 l 40 706 l 40 758 b 350 1056 40 958 185 1056 b 650 790 531 1056 650 960 m 349 -14 b 263 72 301 -14 263 26 b 349 160 263 119 301 160 b 436 72 397 160 436 119 b 349 -14 436 26 397 -14 "},"‘":{"ha":274,"x_min":0,"x_max":0,"o":"m 224 788 b 136 701 224 740 183 701 b 44 803 85 701 44 742 b 139 1042 44 869 83 956 l 218 1042 b 140 875 181 979 154 926 b 224 788 185 874 224 833 "},"’":{"ha":274,"x_min":0,"x_max":0,"o":"m 229 951 b 135 714 229 886 190 799 l 56 714 b 135 881 93 776 119 829 b 50 967 89 882 50 922 b 138 1054 50 1014 90 1054 b 229 951 189 1054 229 1013 "},"“":{"ha":521,"x_min":0,"x_max":0,"o":"m 224 788 b 136 701 224 740 183 701 b 44 803 85 701 44 742 b 139 1042 44 869 83 956 l 218 1042 b 140 875 181 979 154 926 b 224 788 185 874 224 833 m 471 788 b 383 701 471 740 431 701 b 292 803 332 701 292 742 b 386 1042 292 869 331 956 l 465 1042 b 388 875 428 979 401 926 b 471 788 432 874 471 833 "},"”":{"ha":521,"x_min":0,"x_max":0,"o":"m 229 951 b 135 714 229 886 190 799 l 56 714 b 135 881 93 776 119 829 b 50 967 89 882 50 922 b 138 1054 50 1014 90 1054 b 229 951 189 1054 229 1013 m 476 951 b 382 714 476 886 438 799 l 303 714 b 382 881 340 776 367 829 b 297 967 336 882 297 922 b 385 1054 297 1014 338 1054 b 476 951 436 1054 476 1013 "},"'":{"ha":324,"x_min":0,"x_max":0,"o":"m 97 1042 l 226 1042 l 214 694 l 110 694 "},"\"":{"ha":571,"x_min":0,"x_max":0,"o":"m 97 1042 l 226 1042 l 214 694 l 110 694 m 344 1042 l 474 1042 l 461 694 l 357 694 "},"«":{"ha":806,"x_min":0,"x_max":0,"o":"m 69 425 l 375 631 l 375 501 l 142 354 l 375 207 l 375 78 l 69 283 m 431 425 l 736 631 l 736 501 l 503 354 l 736 207 l 736 78 l 431 283 "},"»":{"ha":806,"x_min":0,"x_max":0,"o":"m 431 78 l 431 207 l 664 354 l 431 501 l 431 631 l 736 425 l 736 283 m 69 78 l 69 207 l 303 354 l 69 501 l 69 631 l 375 425 l 375 283 "},"/":{"ha":543,"x_min":0,"x_max":0,"o":"m 47 0 l 394 1042 l 496 1042 l 149 0 "},"(":{"ha":472,"x_min":0,"x_max":0,"o":"m 133 396 b 347 1042 133 639 208 857 l 464 1042 b 261 396 328 860 261 639 b 464 -250 261 153 328 -68 l 347 -250 b 133 396 208 -65 133 153 "},")":{"ha":472,"x_min":0,"x_max":0,"o":"m 339 396 b 125 -250 339 153 264 -65 l 8 -250 b 211 396 144 -68 211 153 b 8 1042 211 639 144 860 l 125 1042 b 339 396 264 857 339 639 "},"+":{"ha":764,"x_min":0,"x_max":0,"o":"m 332 374 l 104 374 l 104 468 l 332 468 l 332 708 l 432 708 l 432 468 l 660 468 l 660 374 l 432 374 l 432 133 l 332 133 "},"&":{"ha":806,"x_min":0,"x_max":0,"o":"m 539 0 l 539 94 b 342 -14 501 22 436 -14 b 72 275 169 -14 72 82 l 72 325 b 224 550 72 436 133 513 b 100 756 149 588 100 656 l 100 803 b 368 1056 100 968 215 1056 b 636 803 519 1056 636 968 l 636 736 l 497 736 l 497 792 b 368 928 497 888 449 928 b 239 792 289 928 239 888 l 239 756 b 374 610 239 650 294 610 l 789 610 l 789 483 l 664 483 l 664 0 m 368 113 b 525 275 471 113 525 161 l 525 483 l 371 483 b 211 324 276 483 211 439 l 211 276 b 368 113 211 158 263 113 "}}}
